<?xml version="1.0" encoding="iso-8859-1"?>
<!-- Uploaded to: SVG Repo, www.svgrepo.com, Generator: SVG Repo Mixer Tools -->
<svg version="1.1" id="Layer_1" xmlns="http://www.w3.org/2000/svg" xmlns:xlink="http://www.w3.org/1999/xlink" 
	 viewBox="0 0 512.001 512.001" xml:space="preserve">
<path style="fill:#FFFFFF;" d="M315.201,168l25.456-47.736c6.384-11.968,6.032-26.056-0.952-37.688
	C332.729,70.944,320.465,64,306.897,64c-17,0-32.128,11.408-36.792,27.752l-6.416,22.448c-0.976,3.432-4.12,5.8-7.688,5.8
	c-3.568,0-6.712-2.368-7.696-5.8l-6.416-22.448C237.225,75.408,222.105,64,205.105,64h-4.464c-13.152,0-25.208,6.624-32.272,17.712
	c-7.064,11.088-7.96,24.816-2.4,36.728L189.097,168H315.201z"/>
<rect x="192.001" y="184" style="fill:#9FC7D1;" width="120" height="16"/>
<g>
	<path style="fill:#FFFFFF;" d="M123.985,384c8.392,0,12.128-2.712,17.288-6.472c5.832-4.24,13.096-9.528,26.688-9.528
		c13.6,0,20.856,5.288,26.696,9.528c5.168,3.76,8.896,6.472,17.288,6.472c8.4,0,12.136-2.712,17.296-6.472
		c5.84-4.24,13.104-9.528,26.704-9.528c13.592,0,20.856,5.288,26.696,9.528c5.16,3.76,8.88,6.472,17.272,6.472
		c8.4,0,12.136-2.712,17.296-6.472c5.84-4.24,13.104-9.528,26.712-9.528s20.872,5.28,26.72,9.528
		c5.176,3.76,8.904,6.472,17.32,6.472c8.408,0,12.144-2.712,17.312-6.472c3.256-2.36,7.008-5.024,12-6.944L315.689,216H188.425
		l-96.56,153.624c6.488,1.888,10.992,5.112,14.84,7.904C111.857,381.288,115.593,384,123.985,384z M376.001,336c4.416,0,8,3.584,8,8
		s-3.584,8-8,8s-8-3.584-8-8S371.585,336,376.001,336z M336.001,336c4.416,0,8,3.584,8,8s-3.584,8-8,8s-8-3.584-8-8
		S331.585,336,336.001,336z M296.001,336c4.416,0,8,3.584,8,8s-3.584,8-8,8s-8-3.584-8-8S291.585,336,296.001,336z M256.001,336
		c4.416,0,8,3.584,8,8s-3.584,8-8,8c-4.416,0-8-3.584-8-8S251.585,336,256.001,336z M216.001,336c4.416,0,8,3.584,8,8s-3.584,8-8,8
		s-8-3.584-8-8S211.585,336,216.001,336z M176.001,336c4.416,0,8,3.584,8,8s-3.584,8-8,8s-8-3.584-8-8S171.585,336,176.001,336z
		 M136.001,336c4.416,0,8,3.584,8,8s-3.584,8-8,8s-8-3.584-8-8S131.585,336,136.001,336z"/>
	<path style="fill:#FFFFFF;" d="M414.681,390.472c-5.84,4.248-13.112,9.528-26.72,9.528s-20.88-5.288-26.728-9.528
		c-5.168-3.76-8.904-6.472-17.312-6.472s-12.136,2.712-17.304,6.472c-5.832,4.24-13.096,9.528-26.704,9.528
		c-13.592,0-20.856-5.288-26.696-9.528c-5.152-3.76-8.88-6.472-17.272-6.472c-8.4,0-12.136,2.712-17.296,6.472
		c-5.832,4.24-13.104,9.528-26.704,9.528s-20.864-5.288-26.696-9.528c-5.16-3.76-8.896-6.472-17.288-6.472
		s-12.12,2.712-17.272,6.472c-5.84,4.24-13.104,9.528-26.704,9.528s-20.856-5.288-26.696-9.528
		c-4.536-3.296-8.152-5.68-14.616-6.232l-61.568,97.952c5.312,1.96,9.12,4.912,12.44,7.488c4.728,3.664,8.152,6.32,15.736,6.32
		c7.592,0,11.016-2.656,15.76-6.328c5.56-4.312,12.488-9.672,25.56-9.672c13.064,0,19.984,5.368,25.544,9.68
		c4.744,3.664,8.152,6.32,15.744,6.32s11.016-2.656,15.76-6.328c5.56-4.312,12.496-9.672,25.56-9.672
		c13.072,0,19.992,5.36,25.56,9.672c4.752,3.672,8.176,6.328,15.768,6.328s11.024-2.656,15.768-6.328
		c5.568-4.312,12.504-9.672,25.568-9.672s19.992,5.36,25.56,9.672c4.752,3.672,8.176,6.328,15.768,6.328
		c7.6,0,11.032-2.656,15.776-6.328c5.568-4.312,12.504-9.672,25.568-9.672c13.072,0,19.992,5.36,25.56,9.672
		c4.744,3.672,8.176,6.328,15.768,6.328c7.6,0,11.032-2.656,15.776-6.328c5.568-4.312,12.504-9.672,25.576-9.672
		c13.08,0,20.016,5.36,25.584,9.672c4.76,3.672,8.192,6.328,15.808,6.328c7.608,0,11.04-2.656,15.8-6.328
		c3.28-2.536,7.04-5.448,12.248-7.4l-64.248-97.768C421.609,385.448,418.545,387.664,414.681,390.472z M56.001,464
		c-4.416,0-8-3.584-8-8s3.584-8,8-8s8,3.584,8,8S60.417,464,56.001,464z M96.001,464c-4.416,0-8-3.584-8-8s3.584-8,8-8s8,3.584,8,8
		S100.417,464,96.001,464z M136.001,464c-4.416,0-8-3.584-8-8s3.584-8,8-8s8,3.584,8,8S140.417,464,136.001,464z M176.001,464
		c-4.416,0-8-3.584-8-8s3.584-8,8-8s8,3.584,8,8S180.417,464,176.001,464z M216.001,464c-4.416,0-8-3.584-8-8s3.584-8,8-8
		s8,3.584,8,8S220.417,464,216.001,464z M256.001,464c-4.416,0-8-3.584-8-8s3.584-8,8-8c4.416,0,8,3.584,8,8
		S260.417,464,256.001,464z M296.001,464c-4.416,0-8-3.584-8-8s3.584-8,8-8s8,3.584,8,8S300.417,464,296.001,464z M336.001,464
		c-4.416,0-8-3.584-8-8s3.584-8,8-8s8,3.584,8,8S340.417,464,336.001,464z M376.001,464c-4.416,0-8-3.584-8-8s3.584-8,8-8
		s8,3.584,8,8S380.417,464,376.001,464z M416.001,464c-4.416,0-8-3.584-8-8s3.584-8,8-8s8,3.584,8,8S420.417,464,416.001,464z
		 M456.001,448c4.416,0,8,3.584,8,8s-3.584,8-8,8s-8-3.584-8-8S451.585,448,456.001,448z"/>
</g>
<g>
	<path style="fill:#3C4A53;" d="M510.689,483.608L328.001,205.6v-27.592l26.784-50.208c9.048-16.976,8.536-36.96-1.36-53.456
		c-7.584-12.64-19.584-21.328-33.424-24.72V0h-16v48.224c-21.536,1.176-40.536,15.072-48,35.224
		c-7.472-20.16-26.464-34.048-48-35.224V0h-16v48.768c-15.184,2.424-28.688,11.096-37.128,24.352
		c-10.016,15.728-11.288,35.2-3.408,52.096l24.536,52.56v27.92L1.225,483.744c-1.544,2.464-1.64,5.576-0.224,8.128
		c1.408,2.544,4.088,4.128,7,4.128c7.584,0,11.008,2.656,15.744,6.328c5.56,4.304,12.48,9.672,25.536,9.672
		c13.064,0,19.992-5.36,25.552-9.672c4.744-3.672,8.176-6.328,15.768-6.328c7.584,0,11.008,2.656,15.752,6.328
		c5.56,4.312,12.488,9.672,25.536,9.672c13.064,0,19.992-5.36,25.552-9.672c4.744-3.672,8.176-6.328,15.768-6.328
		s11.024,2.656,15.768,6.328c5.568,4.312,12.496,9.672,25.56,9.672s19.992-5.36,25.56-9.672c4.752-3.672,8.176-6.328,15.776-6.328
		c7.592,0,11.024,2.656,15.768,6.328c5.568,4.312,12.496,9.672,25.56,9.672s20-5.36,25.568-9.672
		c4.752-3.672,8.176-6.328,15.776-6.328c7.592,0,11.024,2.656,15.768,6.328c5.568,4.312,12.496,9.672,25.56,9.672
		s20-5.36,25.568-9.672c4.744-3.672,8.176-6.328,15.784-6.328c7.616,0,11.048,2.656,15.808,6.328
		c5.568,4.312,12.504,9.672,25.584,9.672s20.008-5.36,25.576-9.672c4.76-3.672,8.192-6.328,15.808-6.328
		c2.936,0,5.648-1.616,7.04-4.2C512.441,489.208,512.297,486.064,510.689,483.608z M165.969,118.44
		c-5.56-11.912-4.664-25.648,2.4-36.728C175.433,70.624,187.497,64,200.641,64h4.464c17,0,32.128,11.408,36.792,27.752l6.416,22.448
		c0.976,3.432,4.12,5.8,7.688,5.8c3.568,0,6.712-2.368,7.696-5.8l6.416-22.448C274.777,75.408,289.897,64,306.897,64
		c13.56,0,25.832,6.944,32.808,18.576c6.984,11.632,7.336,25.72,0.952,37.688L315.201,168H189.097L165.969,118.44z M312.001,184v16
		h-120v-16H312.001z M188.425,216h127.264l101.584,154.584c-4.992,1.92-8.744,4.576-12,6.944c-5.168,3.76-8.904,6.472-17.312,6.472
		c-8.416,0-12.152-2.712-17.32-6.472c-5.84-4.248-13.112-9.528-26.72-9.528s-20.872,5.288-26.712,9.528
		c-5.16,3.76-8.896,6.472-17.296,6.472c-8.392,0-12.12-2.712-17.272-6.472c-5.832-4.24-13.104-9.528-26.696-9.528
		c-13.6,0-20.864,5.288-26.704,9.528c-5.16,3.76-8.896,6.472-17.296,6.472c-8.392,0-12.128-2.712-17.288-6.472
		c-5.832-4.24-13.096-9.528-26.696-9.528c-13.592,0-20.856,5.288-26.688,9.528c-5.16,3.76-8.896,6.472-17.288,6.472
		s-12.128-2.712-17.288-6.472c-3.848-2.8-8.352-6.016-14.84-7.904L188.425,216z M478.417,489.672
		c-4.76,3.672-8.192,6.328-15.8,6.328c-7.616,0-11.048-2.656-15.808-6.328c-5.568-4.312-12.504-9.672-25.584-9.672
		s-20.008,5.36-25.576,9.672c-4.744,3.672-8.168,6.328-15.776,6.328c-7.592,0-11.024-2.656-15.768-6.328
		c-5.568-4.312-12.488-9.672-25.56-9.672s-20,5.36-25.568,9.672c-4.744,3.672-8.168,6.328-15.776,6.328
		c-7.592,0-11.024-2.656-15.768-6.328c-5.568-4.312-12.488-9.672-25.56-9.672c-13.072,0-20,5.36-25.568,9.672
		c-4.744,3.672-8.168,6.328-15.768,6.328s-11.024-2.656-15.768-6.328c-5.568-4.312-12.488-9.672-25.56-9.672s-20,5.36-25.56,9.672
		c-4.744,3.672-8.16,6.328-15.76,6.328c-7.584,0-11-2.656-15.744-6.32c-5.56-4.312-12.48-9.68-25.544-9.68
		c-13.072,0-20,5.36-25.56,9.672c-4.744,3.672-8.168,6.328-15.76,6.328c-7.584,0-11.008-2.656-15.744-6.328
		c-3.32-2.576-7.128-5.528-12.44-7.488l61.576-97.96c6.456,0.56,10.08,2.936,14.616,6.232c5.84,4.256,13.096,9.544,26.696,9.544
		s20.864-5.288,26.704-9.528c5.16-3.76,8.88-6.472,17.272-6.472s12.128,2.712,17.288,6.472c5.84,4.24,13.096,9.528,26.696,9.528
		s20.864-5.288,26.704-9.528c5.168-3.76,8.896-6.472,17.296-6.472c8.392,0,12.12,2.712,17.272,6.472
		c5.84,4.24,13.104,9.528,26.696,9.528c13.6,0,20.864-5.288,26.704-9.528c5.168-3.76,8.904-6.472,17.304-6.472
		c8.408,0,12.144,2.712,17.312,6.472c5.84,4.24,13.12,9.528,26.728,9.528s20.872-5.28,26.72-9.528
		c3.864-2.808,6.928-5.024,11.736-5.976l64.248,97.768C485.457,484.224,481.697,487.136,478.417,489.672z"/>
	<circle style="fill:#3C4A53;" cx="256.001" cy="456" r="8"/>
	<circle style="fill:#3C4A53;" cx="296.001" cy="456" r="8"/>
	<circle style="fill:#3C4A53;" cx="336.001" cy="456" r="8"/>
	<circle style="fill:#3C4A53;" cx="376.001" cy="456" r="8"/>
	<circle style="fill:#3C4A53;" cx="416.001" cy="456" r="8"/>
	<circle style="fill:#3C4A53;" cx="456.001" cy="456" r="8"/>
	<circle style="fill:#3C4A53;" cx="56.001" cy="456" r="8"/>
	<circle style="fill:#3C4A53;" cx="96.001" cy="456" r="8"/>
	<circle style="fill:#3C4A53;" cx="136.001" cy="456" r="8"/>
	<circle style="fill:#3C4A53;" cx="176.001" cy="456" r="8"/>
	<circle style="fill:#3C4A53;" cx="216.001" cy="456" r="8"/>
	<circle style="fill:#3C4A53;" cx="256.001" cy="344" r="8"/>
	<circle style="fill:#3C4A53;" cx="296.001" cy="344" r="8"/>
	<circle style="fill:#3C4A53;" cx="336.001" cy="344" r="8"/>
	<circle style="fill:#3C4A53;" cx="376.001" cy="344" r="8"/>
	<circle style="fill:#3C4A53;" cx="136.001" cy="344" r="8"/>
	<circle style="fill:#3C4A53;" cx="176.001" cy="344" r="8"/>
	<circle style="fill:#3C4A53;" cx="216.001" cy="344" r="8"/>
</g>
</svg>